# xmcd
#
# Track frame offsets: 
#        165
#        19885
#        34068
#        50540
#        71105
#        86840
#        101191
#        118865
#        133930
#        149315
#        179480
#        199830
#        232148
#
# Disc length: 4440 seconds
#
# Revision: 0
# Processed by: cddbd v1.5.2PL0 Copyright (c) Steve Scherf et al.
# Submitted via: ExactAudioCopy v0.99pb4
#
DISCID=ce11560d
DTITLE=The Cats - Signed by
DYEAR=1972
DGENRE=Country
TTITLE0=Trying to explain
TTITLE1=Let's follow the sun
TTITLE2=Conclusions
TTITLE3=The end of the show
TTITLE4=Let's dance
TTITLE5=Come on girl
TTITLE6=I saw her at the station
TTITLE7=How did you feel
TTITLE8=You don't know me
TTITLE9=Dreams
TTITLE10=I've been in love before
TTITLE11=There has been a time (Long version)
TTITLE12=Datatrack
EXTD=
EXTT0=
EXTT1=
EXTT2=
EXTT3=
EXTT4=
EXTT5=
EXTT6=
EXTT7=
EXTT8=
EXTT9=
EXTT10=
EXTT11=
EXTT12=
PLAYORDER=
